# File created by Blade
# Date/Time:  Tue Jan 27 19:14:14 2015
#---------------------------------------------------------
:version 1.10
:name HOM
:units
  mass 1.0
  length 1.000000
  angle deg
:documentation
     Acclaim Skeleton File
:root
   axis xyz
   order TX TY TZ RX RY RZ
   position 0.000000 0.000000 0.000000
   orientation 0 0 0
:bonedata
   begin
      id 1
      name Spine_dum
      direction 0.000000 1.000000 0.000000
      length 6.116652
      axis 0.0 0.0 0.0 xyz
   end
   begin
      id 2
      name LeftUpLeg_dum
      direction 1.000000 0.000000 0.000000
      length 4.711765
      axis 0.0 0.0 0.0 xyz
   end
   begin
      id 3
      name RightUpLeg_dum
      direction -1.000000 0.000000 0.000000
      length 4.711765
      axis 0.0 0.0 0.0 xyz
   end
   begin
      id 4
      name Spine
      direction 0.000000 1.000000 0.000000
      length 0.000000
      axis 0.0 0.0 0.0 xyz
      dof rx ry rz
   end
   begin
      id 5
      name Spine_dum1
      direction 0.000000 1.000000 0.000000
      length 15.225563
      axis 0.0 0.0 0.0 xyz
   end
   begin
      id 6
      name Spine_dum2
      direction 0.000000 1.000000 0.000000
      length 8.977654
      axis 0.0 0.0 0.0 xyz
   end
   begin
      id 7
      name Spine_dum3
      direction 0.000000 1.000000 0.000000
      length 8.977654
      axis 0.0 0.0 0.0 xyz
   end
   begin
      id 8
      name Head
      direction 0.000000 1.000000 0.000000
      length 4.527550
      axis 0.0 0.0 0.0 xyz
      dof rx ry rz
   end
   begin
      id 9
      name LeftShoulder
      direction 1.000000 0.000000 0.000000
      length 7.110130
      axis 0.0 0.0 -90.0 xyz
      dof rx ry rz
   end
   begin
      id 10
      name LeftArm
      direction 1.000000 0.000000 0.000000
      length 10.398341
      axis 0.0 0.0 -90.0 xyz
      dof rx ry rz
   end
   begin
      id 11
      name LeftForeArm
      direction 1.000000 0.000000 0.000000
      length 8.888997
      axis 0.0 0.0 -90.0 xyz
      dof ry rz rx
   end
   begin
      id 12
      name LeftHand
      direction 0.000000 0.000000 0.000000
      length 0.000000
      axis 0.0 0.0 -90.0 xyz
      dof rx ry rz
   end
   begin
      id 13
      name LeftHand_dum1
      direction 0.000000 0.000000 0.000000
      length 0.000000
      axis 0.0 0.0 -90.0 xyz
   end
   begin
      id 14
      name LeftHand_dum2
      direction 1.000000 0.000000 0.000000
      length 3.937000
      axis 0.0 0.0 -90.0 xyz
   end
   begin
      id 15
      name LeftHandThumb1
      direction 0.000000 0.000000 1.000000
      length 3.937000
      axis 0.0 0.0 -90.0 xyz
      dof rx rz ry
   end
   begin
      id 16
      name RightShoulder
      direction -1.000000 0.000000 0.000000
      length 7.110130
      axis 0.0 0.0 90.0 xyz
      dof rx ry rz
   end
   begin
      id 17
      name RightArm
      direction -1.000000 0.000000 0.000000
      length 10.398341
      axis 0.0 0.0 90.0 xyz
      dof rx ry rz
   end
   begin
      id 18
      name RightForeArm
      direction -1.000000 0.000000 0.000000
      length 8.888997
      axis 0.0 0.0 90.0 xyz
      dof ry rz rx
   end
   begin
      id 19
      name RightHand
      direction 0.000000 0.000000 0.000000
      length 0.000000
      axis 0.0 0.0 90.0 xyz
      dof rx ry rz
   end
   begin
      id 20
      name RightHand_dum1
      direction 0.000000 0.000000 0.000000
      length 0.000000
      axis 0.0 0.0 90.0 xyz
   end
   begin
      id 21
      name RightHand_dum2
      direction -1.000000 0.000000 0.000000
      length 3.937000
      axis 0.0 0.0 90.0 xyz
   end
   begin
      id 22
      name RightHandThumb1
      direction 0.000000 0.000000 1.000000
      length 3.937000
      axis 0.0 0.0 90.0 xyz
      dof rx rz ry
   end
   begin
      id 23
      name LeftUpLeg
      direction 0.000000 -1.000000 0.000000
      length 15.510451
      axis 0.0 0.0 0.0 xyz
      dof rx ry rz
   end
   begin
      id 24
      name LeftLeg
      direction 0.000000 -1.000000 0.000000
      length 14.858061
      axis 0.0 0.0 0.0 xyz
      dof rx ry rz
   end
   begin
      id 25
      name LeftFoot
      direction 0.000000 -0.258819 0.965926
      length 5.128852
      axis 15.0 0.0 0.0 xyz
      dof rx ry rz
   end
   begin
      id 26
      name LeftToeBase
      direction 0.000000 0.000000 1.000000
      length 2.952750
      axis 0.0 0.0 0.0 xyz
      dof rx ry rz
   end
   begin
      id 27
      name RightUpLeg
      direction 0.000000 -1.000000 0.000000
      length 15.510451
      axis 0.0 0.0 0.0 xyz
      dof rx ry rz
   end
   begin
      id 28
      name RightLeg
      direction 0.000000 -1.000000 0.000000
      length 14.858061
      axis 0.0 0.0 0.0 xyz
      dof rx ry rz
   end
   begin
      id 29
      name RightFoot
      direction 0.000000 -0.258819 0.965926
      length 5.128852
      axis 15.0 0.0 0.0 xyz
      dof rx ry rz
   end
   begin
      id 30
      name RightToeBase
      direction 0.000000 0.000000 1.000000
      length 2.952750
      axis 0.0 0.0 0.0 xyz
      dof rx ry rz
   end
:hierarchy
   begin
      root Spine_dum LeftUpLeg_dum RightUpLeg_dum
      Spine_dum Spine
      LeftUpLeg_dum LeftUpLeg
      RightUpLeg_dum RightUpLeg
      Spine Spine_dum1 Spine_dum2 Spine_dum3
      Spine_dum1 Head
      Spine_dum2 LeftShoulder
      Spine_dum3 RightShoulder
      LeftShoulder LeftArm
      LeftArm LeftForeArm
      LeftForeArm LeftHand
      LeftHand LeftHand_dum1 LeftHand_dum2
      LeftHand_dum1 LeftHandThumb1
      RightShoulder RightArm
      RightArm RightForeArm
      RightForeArm RightHand
      RightHand RightHand_dum1 RightHand_dum2
      RightHand_dum1 RightHandThumb1
      LeftUpLeg LeftLeg
      LeftLeg LeftFoot
      LeftFoot LeftToeBase
      RightUpLeg RightLeg
      RightLeg RightFoot
      RightFoot RightToeBase
   end

# File created by Blade
# Date/Time:  Tue Jan 27 19:14:06 2015
# Frame Rate: 120.000 fps
#------------------------------------------------------
:FULLY-SPECIFIED
:DEGREES
705
root 4.467575 32.408031 1.103119 -2.381688 25.984677 3.553048
Spine -3.698879 17.725611 -4.484999
Head 12.525800 -26.637258 -4.373257
LeftShoulder -8.845589 -8.300884 23.605688
LeftArm -5.992518 33.699632 -104.348190
LeftForeArm 6.326658 -0.000000 9.264707
LeftHand 9.964703 -0.000000 -8.028196
LeftHandThumb1 -26.253704 0.000000 33.147579
RightShoulder -14.009433 22.580199 -63.031142
RightArm 78.921826 48.964435 88.890428
RightForeArm 30.258852 -0.000000 63.242475
RightHand 22.985700 -0.000000 -1.669350
RightHandThumb1 -24.326973 -0.000000 -32.862282
LeftUpLeg 6.662431 -15.148814 -3.543000
LeftLeg 2.766665 -0.000000 -0.000000
LeftFoot -9.921285 2.452670 -20.233329
LeftToeBase 19.477572 -0.000000 -0.000000
RightUpLeg 14.858245 -9.749889 0.993632
RightLeg -4.504397 -0.000000 0.000000
RightFoot -17.894089 -25.789604 20.526318
RightToeBase 11.957422 -0.000000 -0.000000
706
root 4.464207 32.408094 1.105144 -2.350488 25.974183 3.546916
Spine -3.697608 17.726889 -4.496454
Head 12.557416 -26.607942 -4.428653
LeftShoulder -8.836082 -8.278860 23.594310
LeftArm -5.965445 33.763980 -104.314394
LeftForeArm 6.256034 -0.000000 9.285650
LeftHand 9.978111 -0.000000 -8.037696
LeftHandThumb1 -26.253704 0.000000 33.147579
RightShoulder -13.911303 22.593942 -62.974961
RightArm 79.496452 49.121152 89.879169
RightForeArm 30.618567 -0.000000 65.385004
RightHand 23.326367 0.000000 -0.990836
RightHandThumb1 -24.326973 -0.000000 -32.862282
LeftUpLeg 6.629452 -15.149933 -3.522447
LeftLeg 2.765323 -0.000000 -0.000000
LeftFoot -9.915892 2.447139 -20.273949
LeftToeBase 19.415919 -0.000000 -0.000000
RightUpLeg 14.822392 -9.770775 1.006646
RightLeg -4.507932 -0.000000 0.000000
RightFoot -17.847432 -25.785101 20.480295
RightToeBase 11.857124 -0.000000 -0.000000
707
root 4.462565 32.408112 1.108353 -2.327101 25.957798 3.544926
Spine -3.686134 17.735113 -4.505300
Head 12.601028 -26.580710 -4.491875
LeftShoulder -8.826169 -8.288284 23.584455
LeftArm -5.980668 33.768687 -104.302327
LeftForeArm 6.244242 -0.000000 9.312730
LeftHand 9.967946 -0.000000 -8.022422
LeftHandThumb1 -26.253704 0.000000 33.147579
RightShoulder -13.891017 22.680477 -62.981406
RightArm 80.104017 49.205207 91.001285
RightForeArm 30.520455 0.000000 67.480189
RightHand 23.571794 -0.000000 -0.600322
RightHandThumb1 -24.326973 -0.000000 -32.862282
LeftUpLeg 6.618857 -15.169875 -3.515582
LeftLeg 2.751687 -0.000000 -0.000000
LeftFoot -9.933514 2.488930 -20.267502
LeftToeBase 19.424735 -0.000000 -0.000000
RightUpLeg 14.802898 -9.763710 1.014347
RightLeg -4.513273 -0.000000 0.000000
RightFoot -17.832313 -25.767787 20.470251
RightToeBase 11.833008 -0.000000 -0.000000
708
root 4.459614 32.408214 1.111062 -2.292721 25.944848 3.543460
Spine -3.687537 17.740572 -4.522198
Head 12.667050 -26.585468 -4.574095
LeftShoulder -8.822211 -8.286499 23.569699
LeftArm -5.976988 33.729833 -104.271071
LeftForeArm 6.262482 -0.000000 9.345900
LeftHand 9.970275 -0.000000 -8.015079
LeftHandThumb1 -26.253704 0.000000 33.147579
RightShoulder -13.849111 22.786814 -63.002914
RightArm 80.497470 49.353192 91.851156
RightForeArm 30.637537 -0.000000 69.655945
RightHand 23.841049 -0.000000 -0.883413
RightHandThumb1 -24.326973 -0.000000 -32.862282
LeftUpLeg 6.588771 -15.150905 -3.496879
LeftLeg 2.745687 -0.000000 -0.000000
LeftFoot -9.924614 2.480836 -20.257359
LeftToeBase 19.409020 -0.000000 -0.000000
RightUpLeg 14.774980 -9.785141 1.017549
RightLeg -4.541288 -0.000000 0.000000
RightFoot -17.786852 -25.797349 20.444186
RightToeBase 11.286851 -0.000000 -0.000000
709
root 4.458880 32.407751 1.114244 -2.260397 25.930695 3.548573
Spine -3.688645 17.735001 -4.547102
Head 12.732927 -26.598819 -4.648835
LeftShoulder -8.841832 -8.283627 23.567689
LeftArm -5.979195 33.656166 -104.247047
LeftForeArm 6.298515 -0.000000 9.371608
LeftHand 10.012167 -0.000000 -8.078125
LeftHandThumb1 -26.253704 0.000000 33.147579
RightShoulder -13.790752 22.795239 -62.992328
RightArm 81.155105 49.537183 92.983029
RightForeArm 30.371593 0.000000 71.807705
RightHand 24.029733 -0.000000 -0.357702
RightHandThumb1 -24.326973 -0.000000 -32.862282
LeftUpLeg 6.572405 -15.160698 -3.495752
LeftLeg 2.742471 -0.000000 -0.000000
LeftFoot -9.926573 2.482431 -20.226405
LeftToeBase 19.289512 -0.000000 -0.000000
RightUpLeg 14.759376 -9.819209 1.015251
RightLeg -4.564661 -0.000000 0.000000
RightFoot -17.779254 -25.785315 20.421070
RightToeBase 11.331819 -0.000000 -0.000000
710
root 4.456027 32.407533 1.116067 -2.227073 25.933018 3.551185
Spine -3.680211 17.708262 -4.573294
Head 12.777337 -26.594825 -4.713958
LeftShoulder -8.869599 -8.275347 23.558411
LeftArm -5.964387 33.610476 -104.211936
LeftForeArm 6.357724 0.000000 9.394257
LeftHand 10.002602 0.000000 -8.069762
LeftHandThumb1 -26.253704 0.000000 33.147579
RightShoulder -13.705953 22.744179 -62.963253
RightArm 81.854386 49.760506 94.069958
RightForeArm 30.472477 0.000000 74.002877
RightHand 24.197136 -0.000000 -0.440910
RightHandThumb1 -24.326973 -0.000000 -32.862282
LeftUpLeg 6.537666 -15.185499 -3.485458
LeftLeg 2.735828 -0.000000 -0.000000
LeftFoot -9.924748 2.503439 -20.344376
LeftToeBase 19.270440 -0.000000 -0.000000
RightUpLeg 14.730518 -9.835003 1.022056
RightLeg -4.568132 -0.000000 0.000000
RightFoot -17.780389 -25.776640 20.415798
RightToeBase 11.319341 -0.000000 -0.000000
711
root 4.452837 32.407451 1.118856 -2.187292 25.923949 3.548647
Spine -3.687751 17.718415 -4.611410
Head 12.834961 -26.610589 -4.772857
LeftShoulder -8.888671 -8.255088 23.551171
LeftArm -5.915234 33.560536 -104.163825
LeftForeArm 6.396380 -0.000000 9.392776
LeftHand 10.030180 -0.000000 -8.035581
LeftHandThumb1 -26.253704 0.000000 33.147579
RightShoulder -13.621155 22.580751 -62.897083
RightArm 82.721627 50.002642 95.256666
RightForeArm 30.486319 -0.000000 76.170875
RightHand 24.363771 -0.000000 -0.911418
RightHandThumb1 -24.326973 -0.000000 -32.862282
LeftUpLeg 6.503879 -15.195416 -3.466863
LeftLeg 2.737210 -0.000000 -0.000000
LeftFoot -9.946002 2.514760 -20.227580
LeftToeBase 19.324010 -0.000000 -0.000000
RightUpLeg 14.695462 -9.777191 1.053600
RightLeg -4.568691 -0.000000 0.000000
RightFoot -17.810187 -25.766268 20.443368
RightToeBase 11.832170 -0.000000 -0.000000
712
root 4.450945 32.407960 1.123050 -2.156434 25.907961 3.549364
Spine -3.685723 17.745174 -4.648161
Head 12.901610 -26.634961 -4.844624
LeftShoulder -8.906009 -8.228728 23.526226
LeftArm -5.856295 33.527497 -104.097826
LeftForeArm 6.404773 -0.000000 9.399994
LeftHand 10.025054 -0.000000 -8.053862
LeftHandThumb1 -26.253704 0.000000 33.147579
RightShoulder -13.567515 22.644606 -62.912373
RightArm 83.258439 50.282247 96.217315
RightForeArm 30.806216 -0.000000 78.336786
RightHand 24.527775 0.000000 -0.751246
RightHandThumb1 -24.326973 -0.000000 -32.862282
LeftUpLeg 6.493861 -15.190523 -3.454649
LeftLeg 2.710427 -0.000000 -0.000000
LeftFoot -9.945041 2.514980 -20.248293
LeftToeBase 19.391348 -0.000000 -0.000000
RightUpLeg 14.674295 -9.790427 1.055560
RightLeg -4.598861 -0.000000 0.000000
RightFoot -17.738735 -25.805850 20.381917
RightToeBase 11.289144 -0.000000 -0.000000
713
root 4.448312 32.408647 1.127389 -2.121745 25.890336 3.544961
Spine -3.690445 17.767956 -4.682069
Head 12.983663 -26.666569 -4.944718
LeftShoulder -8.934469 -8.238259 23.491443
LeftArm -5.841524 33.475074 -104.047020
LeftForeArm 6.458864 -0.000000 9.395670
LeftHand 10.058149 -0.000000 -7.995574
LeftHandThumb1 -26.253704 0.000000 33.147579
RightShoulder -13.491449 22.593686 -62.863687
RightArm 84.030943 50.579327 97.286386
RightForeArm 31.237075 0.000000 80.431674
RightHand 24.853347 0.000000 -0.363378
RightHandThumb1 -24.326973 -0.000000 -32.862282
LeftUpLeg 6.472721 -15.164574 -3.433063
LeftLeg 2.687840 -0.000000 -0.000000
LeftFoot -9.916552 2.506574 -20.243253
LeftToeBase 19.280821 -0.000000 -0.000000
RightUpLeg 14.639713 -9.747480 1.080038
RightLeg -4.595902 -0.000000 0.000000
RightFoot -17.770949 -25.829578 20.419313
RightToeBase 11.327970 -0.000000 -0.000000
714
root 4.446051 32.409417 1.131458 -2.092742 25.879932 3.543831
Spine -3.681346 17.787771 -4.715058
Head 13.054168 -26.709271 -5.069544
LeftShoulder -8.951269 -8.240600 23.451349
LeftArm -5.812060 33.433571 -103.983492
LeftForeArm 6.428742 0.000000 9.392676
LeftHand 10.087458 0.000000 -8.046679
LeftHandThumb1 -26.253704 0.000000 33.147579
RightShoulder -13.438229 22.521368 -62.817791
RightArm 84.911925 50.846086 98.452844
RightForeArm 31.639640 -0.000000 82.517641
RightHand 25.032617 -0.000000 -0.139313
RightHandThumb1 -24.326973 -0.000000 -32.862282
LeftUpLeg 6.456027 -15.159925 -3.419961
LeftLeg 2.685186 -0.000000 -0.000000
LeftFoot -9.902896 2.497058 -20.336597
LeftToeBase 19.175809 -0.000000 -0.000000
RightUpLeg 14.606452 -9.728989 1.098799
RightLeg -4.571026 -0.000000 0.000000
RightFoot -17.712629 -25.800933 20.326459
RightToeBase 11.702696 -0.000000 -0.000000
715
root 4.442990 32.410243 1.134987 -2.058607 25.872662 3.528164
Spine -3.687561 17.815660 -4.742276
Head 13.116827 -26.783073 -5.195375
LeftShoulder -8.953399 -8.220905 23.414295
LeftArm -5.764544 33.434141 -103.923180
LeftForeArm 6.408824 -0.000000 9.399338
LeftHand 10.090030 -0.000000 -8.014806
LeftHandThumb1 -26.253704 0.000000 33.147579
RightShoulder -13.403596 22.565881 -62.804490
RightArm 85.700466 51.120441 99.562034
RightForeArm 32.118656 -0.000000 84.519043
RightHand 25.395133 -0.000000 0.067573
RightHandThumb1 -24.326973 -0.000000 -32.862282
LeftUpLeg 6.425575 -15.163180 -3.386480
LeftLeg 2.657628 -0.000000 -0.000000
LeftFoot -9.894376 2.499188 -20.307269
LeftToeBase 19.191598 -0.000000 -0.000000
RightUpLeg 14.559971 -9.653020 1.136774
RightLeg -4.557754 -0.000000 0.000000
RightFoot -17.787799 -25.813252 20.450271
RightToeBase 11.915452 -0.000000 -0.000000
716
root 4.442154 32.410604 1.138930 -2.035490 25.872432 3.531585
Spine -3.668371 17.842710 -4.779425
Head 13.168792 -26.848349 -5.323792
LeftShoulder -8.934427 -8.217260 23.382330
LeftArm -5.739651 33.394541 -103.873220
LeftForeArm 6.351425 -0.000000 9.427607
LeftHand 10.072172 -0.000000 -8.120677
LeftHandThumb1 -26.253704 0.000000 33.147579
RightShoulder -13.394338 22.478759 -62.765961
RightArm 86.823630 51.327547 100.984029
RightForeArm 32.259433 -0.000000 86.529857
RightHand 25.354343 -0.000000 0.388798
RightHandThumb1 -24.326973 -0.000000 -32.862282
LeftUpLeg 6.416238 -15.160976 -3.380122
LeftLeg 2.630618 -0.000000 -0.000000
LeftFoot -9.913712 2.538537 -20.300938
LeftToeBase 19.443703 -0.000000 -0.000000
RightUpLeg 14.546574 -9.631926 1.140428
RightLeg -4.574829 -0.000000 0.000000
RightFoot -17.808110 -25.881511 20.492765
RightToeBase 11.389454 -0.000000 -0.000000
